<?xml version="1.0" encoding="UTF-8"?>
<svg id="Layer_2" data-name="Layer 2" xmlns="http://www.w3.org/2000/svg" viewBox="0 0 759.73 275.73">
  <defs>
    <style>
      .cls-1 {
        fill: #fff;
      }
    </style>
  </defs>
  <g id="Layer_1-2" data-name="Layer 1">
    <g>
      <path class="cls-1" d="M534.2,274.46h-78.17c0-5.39,0-10.21,0-15.04,0-54.41-.58-108.82,.38-163.21,.26-14.48-4.5-17.15-17.68-17.02-64.38,.64-128.76,.31-193.14,.32-5.4,0-10.79,0-17.14,0V1.26c4.73,0,9.59,0,14.44,0,81.61,0,163.22-.04,244.83,.01,32.08,.02,46.5,14.49,46.51,46.52,.02,70.73-.02,141.46-.03,212.19,0,4.45,0,8.91,0,14.48Z"/>
      <path class="cls-1" d="M.04,178.89c48.19,30.76,98.92,33.49,152.31,27.81V99.06h65.51c.33,3.8,.95,7.69,.96,11.58,.07,41.71,.14,83.41,0,125.12-.08,26.77-12.33,39.02-39.09,39.1-47.15,.14-94.29,.13-141.44,.05-25.64-.04-38.04-12.58-38.24-38.54-.14-17.63-.03-35.26-.03-57.48Z"/>
      <path class="cls-1" d="M541.52,98.55h66.28v109.21h151.91c-10.14,15.25-20.17,27.4-26.94,41.16-10.52,21.41-25.75,28.16-49.42,26.58-34.28-2.29-68.83-.48-103.26-.66-25.76-.13-38.43-12.67-38.53-38.27-.17-45.68-.05-91.35-.05-138.03Z"/>
      <path class="cls-1" d="M607.5,78.18h-65.39c0-17.29-1.12-34.02,.31-50.53,1.49-17.26,15.79-27.46,36.15-27.53,55.73-.18,111.46-.09,167.2-.11,4.41,0,8.82,0,13.96,0V66.81c-5.02,0-9.8,0-14.58,0-41.23-.02-82.47-.03-123.7-.08-7.96-.01-16.87-1.54-13.94,11.45Z"/>
      <path class="cls-1" d="M228.57,99.39h76.87v174.79h-76.87V99.39Z"/>
      <path class="cls-1" d="M419.24,99.5v173.62c-5.79-3.22-11.08-6.07-16.27-9.08-15.68-9.07-30.87-19.14-47.13-27-11.72-5.66-14.54-13.39-14.3-25.57,.73-37.07,.26-74.17,.26-111.96h77.44Z"/>
      <path class="cls-1" d="M218.08,.8V77.86h-64.21V.8h64.21Z"/>
    </g>
  </g>
</svg>